<?xml version="1.0" standalone="no"?>
<svg xmlns="http://www.w3.org/2000/svg" viewBox="0 0 164.0578823529412 48" width="164.0578823529412" height="48"><rect fill="none" stroke="#000000" stroke-width="3" width="161.0578823529412" height="45" x="1.5" y="1.5"></rect><g fill="#000000" color="#000000" transform="translate(12, 12) scale(0.4705883)"><svg width="44.0" height="51.0" x="0.0" y="0.0" viewBox="0 0 44 51"><path fill="currentColor" fill-rule="evenodd" d="M21.986 0L44 12.704v25.393L22.029 50.801.014 38.111 0 12.718 21.986 0zM22 7.428L6.43 16.425V34.42l15.599 8.996 15.555-9.01-.014-17.994L22 7.428zm-.001 5.403l10.907 6.302v12.561l-10.907 6.302-10.893-6.288-.015-12.575L22 12.83z"></path></svg></g><path fill="#000000" fill-rule="nonzero" d="M2.83 16.97L0.12 16.97Q0 16.97 0 16.85L0 16.85L0.02 0.36Q0.02 0.26 0.12 0.26L0.12 0.26L2.81 0.26Q2.90 0.26 2.90 0.36L2.90 0.36L2.93 16.85Q2.93 16.97 2.83 16.97L2.83 16.97ZM7.66 16.97L5.26 16.97Q5.06 16.97 5.06 16.80L5.06 16.80L5.04 0.46Q5.04 0.26 5.23 0.26L5.23 0.26L7.39 0.26L11.45 9.72L11.33 0.46Q11.33 0.26 11.54 0.26L11.54 0.26L13.92 0.26Q14.06 0.26 14.06 0.46L14.06 0.46L14.09 16.82Q14.09 16.97 13.97 16.97L13.97 16.97L11.86 16.97L7.70 8.14L7.87 16.78Q7.87 16.97 7.66 16.97L7.66 16.97ZM18.98 16.97L16.30 16.97Q16.18 16.97 16.18 16.85L16.18 16.85L16.22 0.36Q16.22 0.26 16.32 0.26L16.32 0.26L24 0.26Q24.12 0.26 24.12 0.36L24.12 0.36L24.12 3.07Q24.12 3.17 24.02 3.17L24.02 3.17L19.10 3.17L19.10 6.89L24.02 6.89Q24.12 6.89 24.12 7.01L24.12 7.01L24.14 9.72Q24.14 9.82 24.02 9.82L24.02 9.82L19.10 9.82L19.10 16.85Q19.10 16.97 18.98 16.97L18.98 16.97ZM29.35 16.97L26.64 16.97Q26.52 16.97 26.52 16.85L26.52 16.85L26.54 0.36Q26.54 0.26 26.64 0.26L26.64 0.26L29.33 0.26Q29.42 0.26 29.42 0.36L29.42 0.36L29.45 16.85Q29.45 16.97 29.35 16.97L29.35 16.97ZM34.18 16.97L31.78 16.97Q31.58 16.97 31.58 16.80L31.58 16.80L31.56 0.46Q31.56 0.26 31.75 0.26L31.75 0.26L33.91 0.26L37.97 9.72L37.85 0.46Q37.85 0.26 38.06 0.26L38.06 0.26L40.44 0.26Q40.58 0.26 40.58 0.46L40.58 0.46L40.61 16.82Q40.61 16.97 40.49 16.97L40.49 16.97L38.38 16.97L34.22 8.14L34.39 16.78Q34.39 16.97 34.18 16.97L34.18 16.97ZM45.53 16.97L42.82 16.97Q42.70 16.97 42.70 16.85L42.70 16.85L42.72 0.36Q42.72 0.26 42.82 0.26L42.82 0.26L45.50 0.26Q45.60 0.26 45.60 0.36L45.60 0.36L45.62 16.85Q45.62 16.97 45.53 16.97L45.53 16.97ZM52.85 16.97L50.14 16.97Q50.04 16.97 50.04 16.85L50.04 16.85L50.04 3.17L46.92 3.17Q46.80 3.17 46.80 3.05L46.80 3.05L46.82 0.36Q46.82 0.26 46.92 0.26L46.92 0.26L56.04 0.26Q56.16 0.26 56.16 0.36L56.16 0.36L56.16 3.05Q56.16 3.17 56.06 3.17L56.06 3.17L52.92 3.17L52.94 16.85Q52.94 16.97 52.85 16.97L52.85 16.97ZM62.33 16.97L59.57 16.97Q59.50 16.97 59.50 16.87L59.50 16.87L59.52 10.06L56.30 0.36Q56.28 0.26 56.38 0.26L56.38 0.26L59.04 0.26Q59.16 0.26 59.18 0.36L59.18 0.36L60.96 6.82L62.76 0.36Q62.78 0.26 62.88 0.26L62.88 0.26L65.57 0.26Q65.66 0.26 65.64 0.36L65.64 0.36L62.40 9.96L62.42 16.87Q62.42 16.97 62.33 16.97L62.33 16.97ZM71.35 16.97L67.06 16.97Q66.96 16.97 66.96 16.85L66.96 16.85L67.01 0.36Q67.01 0.26 67.10 0.26L67.10 0.26L71.71 0.26Q73.08 0.26 74.16 0.92Q75.24 1.58 75.86 2.66Q76.49 3.74 76.49 5.02L76.49 5.02Q76.49 6.05 76.02 6.94Q75.55 7.82 74.90 8.38L74.90 8.38Q75.60 9.07 75.98 9.98Q76.37 10.90 76.37 11.90L76.37 11.90Q76.37 13.30 75.70 14.45Q75.02 15.60 73.88 16.28Q72.74 16.97 71.35 16.97L71.35 16.97ZM69.89 3.12L69.89 6.89L71.71 6.89Q72.55 6.89 73.07 6.30Q73.58 5.71 73.58 5.02L73.58 5.02Q73.58 4.25 73.03 3.68Q72.48 3.12 71.71 3.12L71.71 3.12L69.89 3.12ZM69.89 9.79L69.86 14.04L71.35 14.04Q72.22 14.04 72.84 13.40Q73.46 12.77 73.46 11.90L73.46 11.90Q73.46 11.04 72.84 10.42Q72.22 9.79 71.35 9.79L71.35 9.79L69.89 9.79ZM85.94 16.97L78.19 16.97Q78.10 16.97 78.10 16.85L78.10 16.85L78.12 0.38Q78.12 0.26 78.24 0.26L78.24 0.26L80.90 0.26Q81.02 0.26 81.02 0.38L81.02 0.38L81 14.02L85.94 14.02Q86.06 14.02 86.06 14.14L86.06 14.14L86.06 16.85Q86.06 16.97 85.94 16.97L85.94 16.97ZM91.73 17.21L91.73 17.21Q90.43 17.21 89.36 16.55Q88.30 15.89 87.65 14.80Q87 13.70 87 12.38L87 12.38L87.02 4.78Q87.02 3.46 87.66 2.38Q88.30 1.30 89.38 0.65Q90.46 0 91.73 0L91.73 0Q93.02 0 94.08 0.65Q95.14 1.30 95.77 2.38Q96.41 3.46 96.41 4.78L96.41 4.78L96.43 12.38Q96.43 13.70 95.80 14.80Q95.16 15.89 94.09 16.55Q93.02 17.21 91.73 17.21ZM91.73 14.30L91.73 14.30Q92.45 14.30 92.99 13.72Q93.53 13.13 93.53 12.38L93.53 12.38L93.50 4.78Q93.50 3.98 93 3.43Q92.50 2.88 91.73 2.88L91.73 2.88Q90.98 2.88 90.46 3.42Q89.93 3.96 89.93 4.78L89.93 4.78L89.93 12.38Q89.93 13.18 90.46 13.74Q90.98 14.30 91.73 14.30ZM102.65 17.21L102.65 17.21Q101.35 17.21 100.30 16.56Q99.24 15.91 98.60 14.82Q97.97 13.73 97.97 12.38L97.97 12.38L97.97 4.78Q97.97 3.48 98.60 2.39Q99.24 1.30 100.31 0.65Q101.38 0 102.65 0L102.65 0Q103.97 0 105.04 0.64Q106.10 1.27 106.73 2.35Q107.35 3.43 107.35 4.78L107.35 4.78L107.35 5.88Q107.35 5.98 107.23 5.98L107.23 5.98L104.54 5.98Q104.45 5.98 104.45 5.88L104.45 5.88L104.45 4.97Q104.45 4.06 103.93 3.46Q103.42 2.86 102.65 2.86L102.65 2.86Q101.95 2.86 101.41 3.43Q100.87 4.01 100.87 4.78L100.87 4.78L100.87 12.38Q100.87 13.18 101.40 13.74Q101.93 14.30 102.65 14.30L102.65 14.30Q103.42 14.30 103.93 13.75Q104.45 13.20 104.45 12.38L104.45 12.38L104.45 11.21L102.77 11.21Q102.65 11.21 102.65 11.09L102.65 11.09L102.65 8.40Q102.65 8.28 102.77 8.28L102.77 8.28L107.26 8.28Q107.35 8.28 107.35 8.40L107.35 8.40L107.35 12.38Q107.35 13.73 106.72 14.82Q106.08 15.91 105.02 16.56Q103.97 17.21 102.65 17.21Z" transform="translate(44.705882352941174 15.516)"></path></svg>